# xmcd
#
# Track frame offsets:
#	150
#	16371
#	29533
#	45090
#	68206
#	79816
#	91757
#	103167
#	121650
#	137318
#	152801
#	166777
#	182571
#	194535
#	205472
#	220255
#
# Disc length: 3246 seconds
#
# Revision: 0
# Processed by: cddbd v1.5.2PL0 Copyright (c) Steve Scherf et al.
#
# Submitted via: freedbSubmitter v1.01
#
DISCID=cd0cac10
DTITLE=Windborne - Lay Around That Shack
DYEAR=2015
DGENRE=Folk
TTITLE0=Windborne - Rollin' In My Sweet Baby's Arms
TTITLE1=Windborne - Diamond Joe
TTITLE2=Windborne - Idumea/Saint's Delight
TTITLE3=Windborne - Ain't No Grave
TTITLE4=Windborne - Way Down To Shawneetown
TTITLE5=Windborne - Fox Went Out on a Chilly Night
TTITLE6=Windborne - Gimme Just a Little More Time
TTITLE7=Windborne - Blackest Crow
TTITLE8=Windborne - Diggins
TTITLE9=Windborne - I Can Hew
TTITLE10=Windborne - Darlin' Corey
TTITLE11=Windborne - Lazy John
TTITLE12=Windborne - Chilly Winds
TTITLE13=Windborne - Greenland Fisheries
TTITLE14=Windborne - Grey Funnel Line
TTITLE15=Windborne - Going Across the Sea
EXTD=
EXTT0=
EXTT1=
EXTT2=
EXTT3=
EXTT4=
EXTT5=
EXTT6=
EXTT7=
EXTT8=
EXTT9=
EXTT10=
EXTT11=
EXTT12=
EXTT13=
EXTT14=
EXTT15=
PLAYORDER=
